<?xml version="1.0" standalone="no"?>
<!DOCTYPE svg PUBLIC "-//W3C//DTD SVG 1.1//EN" "http://www.w3.org/Graphics/SVG/1.1/DTD/svg11.dtd">
<svg version="1.1" xmlns="http://www.w3.org/2000/svg" viewBox="0 0 74.0555696426984 65.86679115295411" width="74.0555696426984" height="65.86679115295411"><!-- svg-source:excalidraw --><metadata></metadata><defs><style class="style-fonts">
      </style></defs><g stroke-linecap="round"><g transform="translate(63.586252498542876 55.05892562270165) rotate(0 -26.558467677193676 -22.125530046224597)"><path d="M0.47 0.81 C-4.39 -0.15, -21.04 1.43, -29.92 -6.21 C-38.8 -13.86, -48.97 -38.72, -52.81 -45.06 M-0.74 0.19 C-5.19 -1.05, -18.99 -0.4, -27.8 -7.81 C-36.61 -15.23, -49.41 -38.38, -53.59 -44.3" stroke="#d3d3d3" stroke-width="2" fill="none"></path></g><g transform="translate(63.586252498542876 55.05892562270165) rotate(0 -26.558467677193676 -22.125530046224597)"><path d="M-36.2 -30.87 C-38.94 -35.86, -42.77 -37.21, -53.59 -44.3 M-36.2 -30.87 C-39.01 -33.03, -43.19 -36.59, -53.59 -44.3" stroke="#d3d3d3" stroke-width="2" fill="none"></path></g><g transform="translate(63.586252498542876 55.05892562270165) rotate(0 -26.558467677193676 -22.125530046224597)"><path d="M-48.9 -22.84 C-48.59 -29.79, -49.4 -33.05, -53.59 -44.3 M-48.9 -22.84 C-49.01 -26.67, -50.49 -31.93, -53.59 -44.3" stroke="#d3d3d3" stroke-width="2" fill="none"></path></g></g><mask></mask></svg>